<?xml version="1.0" encoding="UTF-8" standalone="no"?>
<!-- Created with Inkscape (http://www.inkscape.org/) -->

<svg
   xmlns:dc="http://purl.org/dc/elements/1.1/"
   xmlns:cc="http://creativecommons.org/ns#"
   xmlns:rdf="http://www.w3.org/1999/02/22-rdf-syntax-ns#"
   xmlns:svg="http://www.w3.org/2000/svg"
   xmlns="http://www.w3.org/2000/svg"
   xmlns:sodipodi="http://sodipodi.sourceforge.net/DTD/sodipodi-0.dtd"
   xmlns:inkscape="http://www.inkscape.org/namespaces/inkscape"
   id="svg2985"
   version="1.1"
   inkscape:version="0.48.4 r9939"
   width="232"
   height="248"
   sodipodi:docname="TL084multipcb.dxf">
  <metadata
     id="metadata2991">
    <rdf:RDF>
      <cc:Work
         rdf:about="">
        <dc:format>image/svg+xml</dc:format>
        <dc:type
           rdf:resource="http://purl.org/dc/dcmitype/StillImage" />
        <dc:title></dc:title>
      </cc:Work>
    </rdf:RDF>
  </metadata>
  <defs
     id="defs2989" />
  <sodipodi:namedview
     pagecolor="#ffffff"
     bordercolor="#666666"
     borderopacity="1"
     objecttolerance="10"
     gridtolerance="10"
     guidetolerance="10"
     inkscape:pageopacity="0"
     inkscape:pageshadow="2"
     inkscape:window-width="1312"
     inkscape:window-height="1000"
     id="namedview2987"
     showgrid="false"
     inkscape:zoom="3.1038936"
     inkscape:cx="116"
     inkscape:cy="124"
     inkscape:window-x="0"
     inkscape:window-y="0"
     inkscape:window-maximized="0"
     inkscape:current-layer="svg2985" />
  <path
     style="fill:#000000"
     d="m 10.788704,242.67783 -2.1000002,0 -1.199999,-1.2 -1.2,-1.2 0,-2.29153 0,-2.29152 2,-1.24902 1.9999992,-1.24902 0,-1.10447 c 0,-0.60746 -0.9000002,-1.91895 -1.9999992,-2.91444 l -2,-1.80998 0,-2.17069 0,-2.1707 2.314451,-2.17432 2.3144512,-2.17431 2.096655,0 2.096655,0 2.524333,3 2.524334,3 5.442115,0 5.442114,0 1.24489,-1.5 1.24489,-1.5 2.17756,0 2.17755,0 1.2,1.2 1.2,1.2 0,2.1 0,2.1 -1.2,1.2 -1.2,1.2 -2.17755,0 -2.17756,0 -1.24489,-1.5 -1.24489,-1.5 -6.127554,0.0316 -6.127555,0.0316 -2.925973,2.5718 -2.925973,2.5718 1.175973,1.88303 c 0.646785,1.03567 1.175973,2.69914 1.175973,3.6966 l 0,1.81357 -1.2,1.2 -1.2,1.2 -2.1,0 z m 0,-3 1.5,0 0,-1.5 0,-1.5 -1.5,0 -1.5000002,0 0,1.5 0,1.5 1.5000002,0 z m 24.999999,-12 1.5,0 0,-1.5 0,-1.5 -1.5,0 -1.5,0 0,1.5 0,1.5 1.5,0 z m -22.999999,-1 1.5,0 0,-1.5 0,-1.5 -1.5,0 -1.5,0 0,1.5 0,1.5 1.5,0 z m 101.199996,16 -63.299997,0 -1.2,-1.2 -1.2,-1.2 0,-2.1 0,-2.1 1.2,-1.2 1.2,-1.2 2.1,0 2.1,0 1.2,1.2 1.2,1.2 0,1.8 0,1.8 24,0 23.999997,0 0,-7.87756 0,-7.87755 -1.5,-1.24489 -1.5,-1.24489 0,-2.17755 0,-2.17756 1.2,-1.2 1.2,-1.2 2.1,0 2.1,0 1.2,1.2 1.2,1.2 0,2.17756 0,2.17755 -1.5,1.24489 c -0.825,0.68469 -1.5,1.63979 -1.5,2.12244 l 0,0.87756 5,0 5,0 0,-0.87756 c 0,-0.48265 -0.675,-1.43775 -1.5,-2.12244 l -1.5,-1.24489 0,-2.17755 0,-2.17756 1.2,-1.2 1.2,-1.2 2.1,0 2.1,0 1.2,1.2 1.2,1.2 0,2.17756 0,2.17755 -1.5,1.24489 -1.5,1.24489 0,7.87755 0,7.87756 26.5,0 26.5,0 0,-25.77503 0,-25.77503 7.5,-7.44994 7.5,-7.44994 0,-9.65259 0,-9.65258 -1.28459,-1.06611 -1.28459,-1.06612 -5.96541,-0.30633 -5.96541,-0.30633 -0.32226,-2.81047 -0.32226,-2.81047 1.19471,-1.43953 1.1947,-1.43953 2.17755,0 2.17756,0 1.2,1.2 1.2,1.2 0,1.8 0,1.8 1.5,0 1.5,0 0,-1.8 0,-1.8 1.2,-1.2 1.2,-1.2 2.1,0 2.1,0 1.2,1.2 1.2,1.2 0,2.8 0,2.8 9.5,0 9.5,0 0,-9.32569 0,-9.32568 -2.5,-2.34863 -2.5,-2.34863 0,-2.65137 0,-2.65137 2.5,-2.34863 2.5,-2.34863 0,-9.32568 0,-9.325701 -9.5,0 -9.5,0 0,2.800011 0,2.8 -1.2,1.2 -1.2,1.2 -2.1,0 -2.1,0 -1.2,-1.2 -1.2,-1.2 0,-1.8 0,-1.8 -1.5,0 -1.5,0 0,1.8 0,1.8 -1.2,1.2 -1.2,1.2 -2.17756,0 -2.17755,0 -1.1947,-1.43953 -1.19471,-1.43953 0.32226,-2.81047 0.32226,-2.810481 5.96541,-0.30633 5.96541,-0.30633 1.28459,-1.06611 1.28459,-1.06611 0,-9.65259 0,-9.652581 -7.5,-7.449945 -7.5,-7.449945 0,-25.775027 0,-25.7750273 -26.5,0 -26.5,0 0,7.8775543 0,7.877556 1.5,1.244889 1.5,1.244889 0,2.177556 0,2.177555 -1.2,1.2 -1.2,1.2 -2.1,0 -2.1,0 -1.2,-1.2 -1.2,-1.2 0,-2.177555 0,-2.177556 1.5,-1.244889 c 0.825,-0.684689 1.5,-1.639789 1.5,-2.122445 l 0,-0.877555 -5,0 -5,0 0,0.877555 c 0,0.482656 0.675,1.437756 1.5,2.122445 l 1.5,1.244889 0,2.177556 0,2.177555 -1.2,1.2 -1.2,1.2 -2.1,0 -2.1,0 -1.2,-1.2 -1.2,-1.2 0,-2.177555 0,-2.177556 1.5,-1.244889 1.5,-1.244889 0,-7.877556 0,-7.8775543 -23.999997,0 -24,0 0,1.7999993 0,1.8 -1.2,1.2 -1.2,1.2 -2.1,0 -2.1,0 -1.2,-1.2 -1.2,-1.2 0,-2.1 0,-2.0999993 1.2,-1.2 1.2,-1.2 63.299997,0 63.3,0 0,25.7750273 0,25.775027 7.5,7.449945 7.5,7.449945 0,11.275031 0,11.27502 12.5,0 12.5,0 0,10.825701 0,10.82568 2.5,2.34863 2.5,2.34863 0,2.65137 0,2.65137 -2.5,2.34863 -2.5,2.34863 0,10.82568 0,10.82569 -12.5,0 -12.5,0 0,11.27503 0,11.27503 -7.5,7.44994 -7.5,7.44994 0,25.77503 0,25.77503 -63.3,0 z m -61.199997,-3 1.5,0 0,-1.5 0,-1.5 -1.5,0 -1.5,0 0,1.5 0,1.5 1.5,0 z m 53.999997,-19 1.5,0 0,-1.5 0,-1.5 -1.5,0 -1.5,0 0,1.5 0,1.5 1.5,0 z m 13,0 1.5,0 0,-1.5 0,-1.5 -1.5,0 -1.5,0 0,1.5 0,1.5 1.5,0 z m 59,-72 1.5,0 0,-1.5 0,-1.5 -1.5,0 -1.5,0 0,1.5 0,1.5 1.5,0 z m 12,0 1.5,0 0,-1.5 0,-1.5 -1.5,0 -1.5,0 0,1.5 0,1.5 1.5,0 z m 25,-22 1.5,0 0,-2 0,-2 -1.5,0 -1.5,0 0,2 0,2 1.5,0 z m -37,-23 1.5,0 0,-1.5 0,-1.5 -1.5,0 -1.5,0 0,1.5 0,1.5 1.5,0 z m 12,0 1.5,0 0,-1.5 0,-1.5 -1.5,0 -1.5,0 0,1.5 0,1.5 1.5,0 z m -84,-72.000007 1.5,0 0,-1.5 0,-1.5 -1.5,0 -1.5,0 0,1.5 0,1.5 1.5,0 z m 13,0 1.5,0 0,-1.5 0,-1.5 -1.5,0 -1.5,0 0,1.5 0,1.5 1.5,0 z m -66.999997,-19 1.5,0 0,-1.5 0,-1.4999993 -1.5,0 -1.5,0 0,1.4999993 0,1.5 1.5,0 z m 27.20821,224.000007 -15.29179,0 -4.20821,-4.28785 -4.20821,-4.28785 0,-25.21215 0,-25.21215 -8.5,0 -8.5,0 0,-20.5 0,-20.5 13.37756,0 13.37755,0 1.24489,-1.5 1.24489,-1.5 2.17756,0 2.17755,0 1.2,1.2 1.2,1.2 0,2.1 0,2.1 -1.2,1.2 -1.2,1.2 -2.17755,0 -2.17756,0 -1.24489,-1.5 -1.24489,-1.5 -11.87755,0 -11.87756,0 0,17.5 0,17.5 8.5,0 8.5,0 0,25.29179 0,25.29179 4.28785,4.20821 4.28785,4.20821 12.21215,0 12.21215,0 0,-12.5 0,-12.5 6.5,0 6.499997,0 0,-1.37756 0,-1.37755 -1.5,-1.24489 -1.5,-1.24489 0,-2.25511 0,-2.25511 1.5,-1.24489 1.5,-1.24489 0,-2.25511 0,-2.25511 -1.5,-1.24489 -1.5,-1.24489 0,-2.25511 0,-2.25511 1.5,-1.24489 1.5,-1.24489 0,-3.87755 0,-3.87756 -1.5,0 -1.5,0 0,-14.8 0,-14.8 -1.06413,-1.06414 -1.06414,-1.06413 0.31414,-4.38587 0.31413,-4.38586 2.5,0 2.5,0 -0.38147,18.75 -0.38146,18.75 1.63146,0 1.63147,0 0,5.37756 0,5.37755 1.5,1.24489 1.5,1.24489 0,2.25511 0,2.25511 -1.5,1.24489 -1.5,1.24489 0,2.25511 0,2.25511 1.5,1.24489 1.5,1.24489 0,2.25511 0,2.25511 -1.5,1.24489 -1.5,1.24489 0,2.87755 0,2.87756 -6.5,0 -6.499997,0 0,12.5 0,12.5 -15.29179,0 z m 26.791787,-34 1.5,0 0,-1.5 0,-1.5 -1.5,0 -1.5,0 0,1.5 0,1.5 1.5,0 z m 0,-14 1.5,0 0,-1.5 0,-1.5 -1.5,0 -1.5,0 0,1.5 0,1.5 1.5,0 z m -3.5,-48 1,0 0,-1.5 0,-1.5 -1,0 -1,0 0,1.5 0,1.5 1,0 z m -32.499997,-1 1.5,0 0,-1.5 0,-1.5 -1.5,0 -1.5,0 0,1.5 0,1.5 1.5,0 z m 79.999997,97 -19.5,0 0,-12.5 0,-12.5 -6.5,0 -6.5,0 0,-2.87756 0,-2.87755 -1.5,-1.24489 -1.5,-1.24489 0,-2.25511 0,-2.25511 1.5,-1.24489 1.5,-1.24489 0,-2.25511 0,-2.25511 -1.5,-1.24489 -1.5,-1.24489 0,-2.25511 0,-2.25511 1.5,-1.24489 1.5,-1.24489 0,-5.37755 0,-5.37756 1.5,0 1.5,0 0,-13.3 0,-13.3 -1.06414,-1.06414 -1.06413,-1.06413 0.31413,-4.38587 0.31414,-4.38586 3,0 3,0 0.31414,4.38586 0.31413,4.38587 -1.06413,1.06413 -1.06414,1.06414 0,14.8 0,14.8 -1.5,0 -1.5,0 0,3.87756 0,3.87755 1.5,1.24489 1.5,1.24489 0,2.25511 0,2.25511 -1.5,1.24489 -1.5,1.24489 0,2.25511 0,2.25511 1.5,1.24489 1.5,1.24489 0,2.25511 0,2.25511 -1.5,1.24489 -1.5,1.24489 0,1.37755 0,1.37756 6.5,0 6.5,0 0,12.5 0,12.5 16.5,0 16.5,0 0,-24.77346 0,-24.77346 8,-7.95308 8,-7.95308 0,-4.07346 0,-4.07346 -1.2,-1.2 -1.2,-1.2 -5.09705,0 -5.09705,0 -3.70295,-3.79216 -3.70295,-3.79217 0,-3.58539 0,-3.58539 -1.5,-1.24489 -1.5,-1.24489 0,-2.17755 0,-2.17756 1.2,-1.2 1.2,-1.2 2.1,0 2.1,0 1.2,1.2 1.2,1.2 0,2.17756 0,2.17755 -1.5,1.24489 -1.5,1.24489 0,2.17461 0,2.1746 3.79216,3.70295 3.79217,3.70295 5.00783,0 5.00784,0 1.2,1.2 1.2,1.2 0,7.07346 0,7.07346 -8,7.95308 -8,7.95308 0,24.77346 0,24.77346 -19.5,0 z m -31,-34 1.5,0 0,-1.5 0,-1.5 -1.5,0 -1.5,0 0,1.5 0,1.5 1.5,0 z m 0,-14 1.5,0 0,-1.5 0,-1.5 -1.5,0 -1.5,0 0,1.5 0,1.5 1.5,0 z m 3,-48 1.5,0 0,-1.5 0,-1.5 -1.5,0 -1.5,0 0,1.5 0,1.5 1.5,0 z m 42,-1 1.5,0 0,-1.5 0,-1.5 -1.5,0 -1.5,0 0,1.5 0,1.5 1.5,0 z m 50.85986,93 -2.01123,0 -2.34863,-2.5 -2.34863,-2.5 -6.70324,0 -6.70324,0 -1.24489,1.5 -1.24489,1.5 -2.17755,0 -2.17756,0 -1.2,-1.2 -1.2,-1.2 0,-2.1 0,-2.1 1.2,-1.2 1.2,-1.2 2.17756,0 2.17755,0 1.24489,1.5 1.24489,1.5 6.70324,0 6.70324,0 2.34863,-2.5 2.34863,-2.5 2.15137,0 2.15137,0 2.17432,2.31445 2.17431,2.31445 0,2.01124 0,2.01123 -2.31445,2.17432 -2.31445,2.17431 -2.01124,0 z m -24.85986,-5 1.5,0 0,-1.5 0,-1.5 -1.5,0 -1.5,0 0,1.5 0,1.5 1.5,0 z m 25,0 1.5,0 0,-1.5 0,-1.5 -1.5,0 -1.5,0 0,1.5 0,1.5 1.5,0 z m -140.999997,3 -2.1,0 -1.2,-1.2 -1.2,-1.2 0,-2.17756 0,-2.17755 1.5,-1.24489 1.5,-1.24489 0,-1.75511 0,-1.75511 -1.5,-1.24489 -1.5,-1.24489 0,-2.25511 0,-2.25511 1.5,-1.24489 c 0.825,-0.68469 1.5,-1.80969 1.5,-2.5 0,-0.69031 -0.675,-1.81531 -1.5,-2.5 l -1.5,-1.24489 0,-2.25511 0,-2.25511 1.5,-1.24489 1.5,-1.24489 0,-1.75511 0,-1.75511 -1.5,-1.24489 -1.5,-1.24489 0,-2.17755 0,-2.17756 1.2,-1.2 1.2,-1.2 2.1,0 2.1,0 1.2,1.2 1.2,1.2 0,2.17756 0,2.17755 -1.5,1.24489 -1.5,1.24489 0,1.72257 0,1.72256 1.82874,1.65499 1.82874,1.65499 4.54882,0 4.54881,0 1.24489,-1.5 1.24489,-1.5 2.17756,0 2.17755,0 1.2,1.2 1.2,1.2 0,2.1 0,2.1 -1.2,1.2 -1.2,1.2 -2.17755,0 -2.17756,0 -1.24489,-1.5 -1.24489,-1.5 -4.72257,0 -4.72256,0 -1.65499,1.82874 c -0.91024,1.00581 -1.65499,2.30071 -1.65499,2.87756 0,0.57684 0.675,1.60901 1.5,2.2937 l 1.5,1.24489 0,2.25511 0,2.25511 -1.5,1.24489 -1.5,1.24489 0,1.75511 0,1.75511 1.5,1.24489 1.5,1.24489 0,2.17755 0,2.17756 -1.2,1.2 -1.2,1.2 -2.1,0 z m 0,-3 1.5,0 0,-1.5 0,-1.5 -1.5,0 -1.5,0 0,1.5 0,1.5 1.5,0 z m 0,-13 1.5,0 0,-1.5 0,-1.5 -1.5,0 -1.5,0 0,1.5 0,1.5 1.5,0 z m 0,-12 1.5,0 0,-1.5 0,-1.5 -1.5,0 -1.5,0 0,1.5 0,1.5 1.5,0 z m 19,0 1.5,0 0,-1.5 0,-1.5 -1.5,0 -1.5,0 0,1.5 0,1.5 1.5,0 z m -19,-13 1.5,0 0,-1.5 0,-1.5 -1.5,0 -1.5,0 0,1.5 0,1.5 1.5,0 z m 76.999997,41 -2.1,0 -1.2,-1.2 -1.2,-1.2 0,-2.17756 0,-2.17755 1.5,-1.24489 1.5,-1.24489 0,-1.75511 0,-1.75511 -1.5,-1.24489 -1.5,-1.24489 0,-2.25511 0,-2.25511 1.5,-1.24489 c 0.825,-0.68469 1.5,-1.79504 1.5,-2.46746 0,-0.67241 -0.82293,-1.96731 -1.82874,-2.87755 l -1.82874,-1.65499 -4.54882,0 -4.54881,0 -1.24489,1.5 -1.24489,1.5 -2.17755,0 -2.17756,0 -1.2,-1.2 -1.2,-1.2 0,-2.1 0,-2.1 1.2,-1.2 1.2,-1.2 2.17756,0 2.17755,0 1.24489,1.5 1.24489,1.5 4.72257,0 4.72256,0 1.65499,-1.82874 1.65499,-1.82874 0,-1.54882 0,-1.54881 -1.5,-1.24489 -1.5,-1.24489 0,-2.17755 0,-2.17756 1.2,-1.2 1.2,-1.2 2.1,0 2.1,0 1.2,1.2 1.2,1.2 0,2.17756 0,2.17755 -1.5,1.24489 -1.5,1.24489 0,1.75511 0,1.75511 1.5,1.24489 1.5,1.24489 0,2.25511 0,2.25511 -1.5,1.24489 c -0.825,0.68469 -1.5,1.80969 -1.5,2.5 0,0.69031 0.675,1.81531 1.5,2.5 l 1.5,1.24489 0,2.25511 0,2.25511 -1.5,1.24489 -1.5,1.24489 0,1.75511 0,1.75511 1.5,1.24489 1.5,1.24489 0,2.17755 0,2.17756 -1.2,1.2 -1.2,1.2 -2.1,0 z m 0,-3 1.5,0 0,-1.5 0,-1.5 -1.5,0 -1.5,0 0,1.5 0,1.5 1.5,0 z m 0,-13 1.5,0 0,-1.5 0,-1.5 -1.5,0 -1.5,0 0,1.5 0,1.5 1.5,0 z m -19,-12 1.5,0 0,-1.5 0,-1.5 -1.5,0 -1.5,0 0,1.5 0,1.5 1.5,0 z m 19,0 1.5,0 0,-1.5 0,-1.5 -1.5,0 -1.5,0 0,1.5 0,1.5 1.5,0 z m 0,-13 1.5,0 0,-1.5 0,-1.5 -1.5,0 -1.5,0 0,1.5 0,1.5 1.5,0 z m -129.130401,30 -2.020967,0 -2.174314,-2.31445 -2.174314,-2.31445 0,-2.01124 0,-2.01123 2.314451,-2.17432 2.314451,-2.17431 1.88083,0 1.88083,0 2.787487,2.67058 2.787487,2.67058 1.845973,-1.67058 1.84597,-1.67058 1.97126,0 1.97126,0 1.2,1.2 1.2,1.2 0,2.1 0,2.1 -1.2,1.2 -1.2,1.2 -1.97126,0 -1.97126,0 -1.84597,-1.67058 -1.845973,-1.67058 -2.787487,2.67058 -2.787487,2.67058 -2.020967,0 z m 0.130405,-5 1.5,0 0,-1.5 0,-1.5 -1.5,0 -1.5,0 0,1.5 0,1.5 1.5,0 z m 12.999999,0 1.5,0 0,-1.5 0,-1.5 -1.5,0 -1.5,0 0,1.5 0,1.5 1.5,0 z m 169.859857,5 -2.01123,0 -2.34863,-2.5 -2.34863,-2.5 -1.70324,0 -1.70324,0 -1.24489,1.5 -1.24489,1.5 -2.17755,0 -2.17756,0 -1.2,-1.2 -1.2,-1.2 0,-2.1 0,-2.1 1.2,-1.2 1.2,-1.2 2.17756,0 2.17755,0 1.24489,1.5 1.24489,1.5 1.70324,0 1.70324,0 2.34863,-2.5 2.34863,-2.5 2.15137,0 2.15137,0 2.17432,2.31445 2.17431,2.31445 0,2.01124 0,2.01123 -2.31445,2.17432 -2.31445,2.17431 -2.01124,0 z m -14.85986,-5 1.5,0 0,-1.5 0,-1.5 -1.5,0 -1.5,0 0,1.5 0,1.5 1.5,0 z m 15,0 1.5,0 0,-1.5 0,-1.5 -1.5,0 -1.5,0 0,1.5 0,1.5 1.5,0 z m -192.999996,-7 -2.151372,0 -2.1743142,-2.31445 -2.174313,-2.31445 0,-2.01124 0,-2.01123 2.314451,-2.17432 2.3144512,-2.17431 2.011234,0 2.011235,0 2.348628,2.5 2.348628,2.5 5.703241,0 5.70324,0 1.24489,-1.5 1.24489,-1.5 2.17756,0 2.17755,0 1.2,1.2 1.2,1.2 0,2.1 0,2.1 -1.2,1.2 -1.2,1.2 -2.17755,0 -2.17756,0 -1.24489,-1.5 -1.24489,-1.5 -5.70324,0 -5.703241,0 -2.348628,2.5 -2.348628,2.5 -2.151372,0 z m 0,-5 1.5,0 0,-1.5 0,-1.5 -1.5,0 -1.5,0 0,1.5 0,1.5 1.5,0 z m 22.999999,0 1.5,0 0,-1.5 0,-1.5 -1.5,0 -1.5,0 0,1.5 0,1.5 1.5,0 z m 179.859857,5 -2.01123,0 -2.34863,-2.5 -2.34863,-2.5 -6.70324,0 -6.70324,0 -1.24489,1.5 -1.24489,1.5 -2.17755,0 -2.17756,0 -1.2,-1.2 -1.2,-1.2 0,-2.1 0,-2.1 1.2,-1.2 1.2,-1.2 2.17756,0 2.17755,0 1.24489,1.5 1.24489,1.5 6.70324,0 6.70324,0 2.34863,-2.5 2.34863,-2.5 2.15137,0 2.15137,0 2.17432,2.31445 2.17431,2.31445 0,2.01124 0,2.01123 -2.31445,2.17432 -2.31445,2.17431 -2.01124,0 z m -24.85986,-5 1.5,0 0,-1.5 0,-1.5 -1.5,0 -1.5,0 0,1.5 0,1.5 1.5,0 z m 25,0 1.5,0 0,-1.5 0,-1.5 -1.5,0 -1.5,0 0,1.5 0,1.5 1.5,0 z m -193.130401,-8 -2.020967,0 -2.174314,-2.31445 -2.174314,-2.31445 0,-2.01124 0,-2.01123 2.314451,-2.17432 2.314451,-2.17431 1.88083,0 1.88083,0 2.787487,2.67058 2.787487,2.67058 1.845973,-1.67058 1.84597,-1.67058 1.97126,0 1.97126,0 1.2,1.2 1.2,1.2 0,2.1 0,2.1 -1.2,1.2 -1.2,1.2 -1.97126,0 -1.97126,0 -1.84597,-1.67058 -1.845973,-1.67058 -2.787487,2.67058 -2.787487,2.67058 -2.020967,0 z m 0.130405,-5 1.5,0 0,-1.5 0,-1.5 -1.5,0 -1.5,0 0,1.5 0,1.5 1.5,0 z m 12.999999,0 1.5,0 0,-1.5 0,-1.5 -1.5,0 -1.5,0 0,1.5 0,1.5 1.5,0 z m 169.859857,5 -2.01123,0 -2.34863,-2.5 -2.34863,-2.5 -1.70324,0 -1.70324,0 -1.24489,1.5 -1.24489,1.5 -2.17755,0 -2.17756,0 -1.2,-1.2 -1.2,-1.2 0,-2.1 0,-2.1 1.2,-1.2 1.2,-1.2 2.17756,0 2.17755,0 1.24489,1.5 1.24489,1.5 1.70324,0 1.70324,0 2.34863,-2.5 2.34863,-2.5 2.15137,0 2.15137,0 2.17432,2.31445 2.17431,2.31445 0,2.01124 0,2.01123 -2.31445,2.17432 -2.31445,2.17431 -2.01124,0 z m -14.85986,-5 1.5,0 0,-1.5 0,-1.5 -1.5,0 -1.5,0 0,1.5 0,1.5 1.5,0 z m 15,0 1.5,0 0,-1.5 0,-1.5 -1.5,0 -1.5,0 0,1.5 0,1.5 1.5,0 z m -111.999997,2 -2.1,0 -1.2,-1.2 -1.2,-1.2 0,-2.17756 0,-2.17755 1.5,-1.24489 c 0.825,-0.68469 1.5,-1.80969 1.5,-2.5 0,-0.69031 -0.675,-1.81531 -1.5,-2.5 l -1.5,-1.24489 0,-2.25511 0,-2.25511 1.52523,-1.26583 1.52523,-1.26582 -1.52523,-1.68536 -1.52523,-1.68536 0,-2.04882 0,-2.04881 1.5,-1.24489 1.5,-1.24489 0,-2.31854 0,-2.31854 -1,-0.61803 -1,-0.61803 0,-1.95456 c 0,-1.075 0.5409,-2.82067 1.20201,-3.87927 l 1.20201,-1.92472 -1.27326,-2.3791 -1.27326,-2.37911 0.32125,-3.9326 0.32125,-3.93261 3,0 3,0 0.32125,3.93261 0.32125,3.9326 -1.25482,2.34467 -1.25483,2.34466 2.18358,1.52943 2.18357,1.52944 0,2.43482 0,2.43482 -2,1.24902 -2,1.24902 0,1.63701 0,1.63701 1.5,1.24489 1.5,1.24489 0,2.25511 0,2.25511 -1.52523,1.26583 -1.52523,1.26582 1.52523,1.68536 1.52523,1.68536 0,2.04882 0,2.04881 -1.5,1.24489 c -0.825,0.68469 -1.5,1.80969 -1.5,2.5 0,0.69031 0.675,1.81531 1.5,2.5 l 1.5,1.24489 0,2.17755 0,2.17756 -1.2,1.2 -1.2,1.2 -2.1,0 z m 0,-3 1.5,0 0,-1.5 0,-1.5 -1.5,0 -1.5,0 0,1.5 0,1.5 1.5,0 z m 0,-12 1.5,0 0,-1.5 0,-1.5 -1.5,0 -1.5,0 0,1.5 0,1.5 1.5,0 z m 0,-10 1.5,0 0,-1.5 0,-1.5 -1.5,0 -1.5,0 0,1.5 0,1.5 1.5,0 z m 1,-13 1.5,0 0,-1.5 0,-1.5 -1.5,0 -1.5,0 0,1.5 0,1.5 1.5,0 z m -1,-13 1.5,0 0,-1.5 0,-1.5 -1.5,0 -1.5,0 0,1.5 0,1.5 1.5,0 z m 38.999997,51 -2.1,0 -1.2,-1.2 -1.2,-1.2 0,-2.17756 0,-2.17755 1.5,-1.24489 c 0.825,-0.68469 1.5,-1.80969 1.5,-2.5 0,-0.69031 -0.675,-1.81531 -1.5,-2.5 l -1.5,-1.24489 0,-2.25511 0,-2.25511 1.52523,-1.26583 1.52523,-1.26582 -1.52523,-1.68536 -1.52523,-1.68536 0,-2.04882 0,-2.04881 1.5,-1.24489 1.5,-1.24489 0,-1.63701 0,-1.63701 -2,-1.24902 -2,-1.24902 0,-2.43482 0,-2.43482 2.18357,-1.52944 2.18358,-1.52943 -1.25483,-2.34466 -1.25482,-2.34467 0.32125,-3.9326 0.32125,-3.93261 2.5,0 2.5,0 0,7.15506 0,7.15506 0.75,0.76161 c 0.4125,0.41888 0.75,1.78505 0.75,3.03592 l 0,2.27432 -1,0.61803 -1,0.61803 0,2.31854 0,2.31854 1.5,1.24489 1.5,1.24489 0,2.25511 0,2.25511 -1.52523,1.26583 -1.52523,1.26582 1.52523,1.68536 1.52523,1.68536 0,2.04882 0,2.04881 -1.5,1.24489 c -0.825,0.68469 -1.5,1.80969 -1.5,2.5 0,0.69031 0.675,1.81531 1.5,2.5 l 1.5,1.24489 0,2.17755 0,2.17756 -1.2,1.2 -1.2,1.2 -2.1,0 z m 0,-3 1.5,0 0,-1.5 0,-1.5 -1.5,0 -1.5,0 0,1.5 0,1.5 1.5,0 z m 0,-12 1.5,0 0,-1.5 0,-1.5 -1.5,0 -1.5,0 0,1.5 0,1.5 1.5,0 z m 0,-10 1.5,0 0,-1.5 0,-1.5 -1.5,0 -1.5,0 0,1.5 0,1.5 1.5,0 z m -1,-13 1.5,0 0,-1.5 0,-1.5 -1.5,0 -1.5,0 0,1.5 0,1.5 1.5,0 z m 0.5,-13 1,0 0,-1.5 0,-1.5 -1,0 -1,0 0,1.5 0,1.5 1,0 z m -57.499997,39 -2.1,0 -1.2,-1.2 -1.2,-1.2 0,-2.17756 0,-2.17755 1.5,-1.24489 1.5,-1.24489 0,-1.87755 0,-1.87756 -5.87755,0 -5.87756,0 -1.24489,1.5 -1.24489,1.5 -2.17755,0 -2.17756,0 -1.2,-1.2 -1.2,-1.2 0,-2.1 0,-2.1 1.2,-1.2 1.2,-1.2 -1.2,-1.2 -1.2,-1.2 0,-2.1 0,-2.1 1.2,-1.2 1.2,-1.2 2.1,0 2.1,0 1.2,1.2 1.2,1.2 0,2.1 0,2.1 -1.15762,1.15762 -1.15762,1.15762 1.28007,1.54238 1.28006,1.54238 10.37756,0 10.37755,0 0,-3.25945 0,-3.25946 -2,-1.24902 -2,-1.24902 0,-2.43482 0,-2.43482 2.18358,-1.52944 2.18357,-1.52943 -1.25483,-2.34466 -1.25482,-2.34467 0.32125,-3.9326 0.32125,-3.93261 3,0 3,0 0.32125,3.93261 0.32125,3.9326 -1.27325,2.37911 -1.27326,2.3791 1.202,1.92472 c 0.66111,1.0586 1.20201,2.80427 1.20201,3.87927 l 0,1.95456 -1,0.61803 -1,0.61803 0,5.44099 0,5.44098 -4.5,0 -4.5,0 0,1.87756 0,1.87755 1.5,1.24489 1.5,1.24489 0,2.17755 0,2.17756 -1.2,1.2 -1.2,1.2 -2.1,0 z m 0,-3 1.5,0 0,-1.5 0,-1.5 -1.5,0 -1.5,0 0,1.5 0,1.5 1.5,0 z m -18,-10 1.5,0 0,-1.5 0,-1.5 -1.5,0 -1.5,0 0,1.5 0,1.5 1.5,0 z m 0,-9 1.5,0 0,-1.5 0,-1.5 -1.5,0 -1.5,0 0,1.5 0,1.5 1.5,0 z m 26,-4 1.5,0 0,-1.5 0,-1.5 -1.5,0 -1.5,0 0,1.5 0,1.5 1.5,0 z m 1,-13 1.5,0 0,-1.5 0,-1.5 -1.5,0 -1.5,0 0,1.5 0,1.5 1.5,0 z m 67.999997,39 -2.1,0 -1.2,-1.2 -1.2,-1.2 0,-2.17756 0,-2.17755 1.5,-1.24489 1.5,-1.24489 0,-1.87755 0,-1.87756 -4.5,0 -4.5,0 0,-5.44098 0,-5.44099 -1,-0.61803 -1,-0.61803 0,-2.38197 0,-2.38197 1,-0.61803 1,-0.61803 0,-1.834 0,-1.83399 -1.55521,-0.59679 -1.55521,-0.59679 0.30521,-4.7602 0.30521,-4.7602 3,0 3,0 -0.11232,6.5 -0.11232,6.5 1.86232,1.3067 1.86232,1.30671 0,2.43482 0,2.43482 -2,1.24902 -2,1.24902 0,3.25946 0,3.25945 9.37756,0 9.37755,0 1.24489,-1.5 1.24489,-1.5 2.31854,0 2.31854,0 0.67188,1.08713 0.67189,1.08713 1.08713,-1.08713 1.08713,-1.08713 2.1,0 2.1,0 1.2,1.2 1.2,1.2 0,2.1 0,2.1 -1.2,1.2 -1.2,1.2 -2.1,0 -2.1,0 -1.08713,-1.08713 -1.08713,-1.08713 -0.67189,1.08713 -0.67188,1.08713 -2.31854,0 -2.31854,0 -1.24489,-1.5 -1.24489,-1.5 -4.87755,0 -4.87756,0 0,1.87756 0,1.87755 1.5,1.24489 1.5,1.24489 0,2.17755 0,2.17756 -1.2,1.2 -1.2,1.2 -2.1,0 z m 0,-3 1.5,0 0,-1.5 0,-1.5 -1.5,0 -1.5,0 0,1.5 0,1.5 1.5,0 z m 16,-10 1.5,0 0,-1.5 0,-1.5 -1.5,0 -1.5,0 0,1.5 0,1.5 1.5,0 z m 8,0 1.5,0 0,-1.5 0,-1.5 -1.5,0 -1.5,0 0,1.5 0,1.5 1.5,0 z m -32,-13 1.5,0 0,-1.5 0,-1.5 -1.5,0 -1.5,0 0,1.5 0,1.5 1.5,0 z m -2,-13 1.5,0 0,-1.5 0,-1.5 -1.5,0 -1.5,0 0,1.5 0,1.5 1.5,0 z m -130.140133,31 -2.0112352,0 -2.174313,-2.31445 -2.174314,-2.31445 0,-2.01124 0,-2.01123 2.314451,-2.17432 2.314451,-2.17431 1.6855482,0 1.685549,0 0,-2.3 0,-2.3 1.2,-1.2 1.2,-1.2 2.1,0 2.1,0 1.2,1.2 1.2,1.2 0,2.29153 0,2.29152 -2,1.24902 -2,1.24902 0,3.08514 0,3.08514 -2.314451,2.17432 -2.314451,2.17431 -2.011235,0 z m 0.140137,-5 1.5,0 0,-1.5 0,-1.5 -1.5,0 -1.5,0 0,1.5 0,1.5 1.5,0 z m 6,-9 1.5,0 0,-1.5 0,-1.5 -1.5,0 -1.5,0 0,1.5 0,1.5 1.5,0 z m 202.807986,14 -2.0631,0 -1.20966,-1.45756 -1.20967,-1.45755 -2.9103,0.58206 -2.9103,0.58206 -1.50248,-1.24695 -1.50248,-1.24695 0,-2.25511 0,-2.25511 1.50248,-1.24695 1.50248,-1.24695 2.9103,0.58206 2.9103,0.58206 1.20967,-1.45755 1.20966,-1.45756 2.20324,0 2.20324,0 2.17432,2.31445 2.17431,2.31445 0,2.01124 0,2.01123 -2.31445,2.17432 -2.31445,2.17431 -2.06311,0 z m -8.80799,-5 1.5,0 0,-1.5 0,-1.5 -1.5,0 -1.5,0 0,1.5 0,1.5 1.5,0 z m 9,0 1.5,0 0,-1.5 0,-1.5 -1.5,0 -1.5,0 0,1.5 0,1.5 1.5,0 z m -18.5,-21.232 -3.5,0 1.75,-0.45733 c 0.9625,-0.25152 2.5375,-0.25152 3.5,0 l 1.75,0.45733 -3.5,0 z m -89.03742,-0.97209 -2.53743,0.29591 -0.71257,-0.71258 -0.71258,-0.71257 0,-4.27432 0,-4.27432 1,-0.61803 1,-0.61803 0,-3.44099 0,-3.44098 42,0 42,0 0,3 0,3 0.84501,0 c 0.46476,0 1.6595,-0.9 2.65499,-2 l 1.80998,-2 2.17069,0 2.1707,0 2.17432,2.31445 2.17431,2.31445 0,2.01124 0,2.01123 -2.31445,2.17432 -2.31445,2.17431 -2.09666,0 -2.09665,0 -2.51563,-2.98965 -2.51563,-2.98966 -3.07078,0.61416 -3.07079,0.61416 -1.50248,-1.24695 -1.50248,-1.24695 0,-2.37755 0,-2.37756 -1.5,0 -1.5,0 0,2.3 0,2.3 -1.2,1.2 -1.2,1.2 -2.1,0 -2.1,0 -1.2,-1.2 -1.2,-1.2 0,-2.3 0,-2.3 -30,0 -30,0 0,1.8 c 0,0.99 0.47886,2.27886 1.06414,2.86414 l 1.06413,1.06413 -0.31413,4.38587 -0.31414,4.38586 -2.53742,0.29591 z m -0.46258,-3.79591 1.5,0 0,-1.5 0,-1.5 -1.5,0 -1.5,0 0,1.5 0,1.5 1.5,0 z m 90,-4 1.5,0 0,-1.5 0,-1.5 -1.5,0 -1.5,0 0,1.5 0,1.5 1.5,0 z m -24,-3 1.5,0 0,-1.5 0,-1.5 -1.5,0 -1.5,0 0,1.5 0,1.5 1.5,0 z m 12,0 1.5,0 0,-1.5 0,-1.5 -1.5,0 -1.5,0 0,1.5 0,1.5 1.5,0 z m -37.5,-11 -42,0 0,-3.3 0,-3.3 -1.06414,-1.06414 -1.06413,-1.06413 0.31413,-4.38587 0.31414,-4.38586 3,0 3,0 0.31414,4.38586 0.31413,4.38587 -1.06413,1.06413 c -0.58528,0.58528 -1.06414,1.87414 -1.06414,2.86414 l 0,1.8 30,0 30,0 0,-2.3 0,-2.3 1.2,-1.2 1.2,-1.2 2.1,0 2.1,0 1.2,1.2 1.2,1.2 0,2.3 0,2.3 1.5,0 1.5,0 0,-2.37756 0,-2.37755 1.50248,-1.24695 1.50248,-1.24695 3.07079,0.61416 3.07078,0.61416 2.51563,-2.98966 2.51563,-2.98965 2.23679,0 2.23679,0 2.17432,2.31445 2.17431,2.31445 0,2.01124 0,2.01123 -2.31445,2.17432 -2.31445,2.17431 -2.03056,0 -2.03056,0 -1.80998,-2 c -0.99549,-1.1 -2.19023,-2 -2.65499,-2 l -0.84501,0 0,3 0,3 -42,0 z m 25.5,-4 1.5,0 0,-1.5 0,-1.5 -1.5,0 -1.5,0 0,1.5 0,1.5 1.5,0 z m 12,0 1.5,0 0,-1.5 0,-1.5 -1.5,0 -1.5,0 0,1.5 0,1.5 1.5,0 z m 12,-3 1.5,0 0,-1.5 0,-1.5 -1.5,0 -1.5,0 0,1.5 0,1.5 1.5,0 z m -90,-4 1.5,0 0,-1.5 0,-1.5 -1.5,0 -1.5,0 0,1.5 0,1.5 1.5,0 z m -42.077547,4 -2.17756,0 -1.24489,-1.5 -1.24489,-1.5 -13.37755,0 -13.37756,0 0,-20.500011 0,-20.499996 8.5,0 8.5,0 0,-25.212148 0,-25.212149 4.20821,-4.287851 4.20821,-4.287852 15.29179,0 15.29179,0 0,12.5 0,12.5 6.499997,0 6.5,0 0,2.877555 0,2.877556 1.5,1.244889 1.5,1.244889 0,2.255111 0,2.255111 -1.5,1.244889 -1.5,1.244889 0,2.255111 0,2.255111 1.5,1.244889 1.5,1.244889 0,2.255111 0,2.255111 -1.5,1.244889 -1.5,1.244889 0,5.377556 0,5.377555 -1.63147,0 -1.63146,0 0.38146,18.749996 0.38147,18.750011 -2.5,0 -2.5,0 -0.31413,-4.38586 -0.31414,-4.38587 1.06414,-1.06413 1.06413,-1.06414 0,-14.800011 0,-14.799996 1.5,0 1.5,0 0,-3.877555 0,-3.877556 -1.5,-1.244889 -1.5,-1.244889 0,-2.255111 0,-2.255111 1.5,-1.244889 1.5,-1.244889 0,-2.255111 0,-2.255111 -1.5,-1.244889 -1.5,-1.244889 0,-2.255111 0,-2.255111 1.5,-1.244889 1.5,-1.244889 0,-1.377556 0,-1.377555 -6.499997,0 -6.5,0 0,-12.5 0,-12.5 -12.29179,0 -12.29179,0 -4.20821,4.287852 -4.20821,4.287851 0,25.212149 0,25.212148 -8.5,0 -8.5,0 0,17.499996 0,17.500011 11.87756,0 11.87755,0 1.24489,-1.5 1.24489,-1.5 2.17756,0 2.17755,0 1.2,1.2 1.2,1.2 0,2.1 0,2.1 -1.2,1.2 -1.2,1.2 -2.17755,0 z m 0.0776,-3 1.5,0 0,-1.5 0,-1.5 -1.5,0 -1.5,0 0,1.5 0,1.5 1.5,0 z m 32.499997,-1 1,0 0,-1.5 0,-1.5 -1,0 -1,0 0,1.5 0,1.5 1,0 z m 3.5,-48.000007 1.5,0 0,-1.5 0,-1.5 -1.5,0 -1.5,0 0,1.5 0,1.5 1.5,0 z m 0,-14 1.5,0 0,-1.5 0,-1.5 -1.5,0 -1.5,0 0,1.5 0,1.5 1.5,0 z m -22.537427,65.795917 -2.53742,0.29591 -0.71258,-0.71258 -0.71258,-0.71257 0,-3.84691 0,-3.8469 1.23506,-1.97764 1.23506,-1.97764 -2.23506,-1.56549 -2.23506,-1.565501 0,-2.43483 0,-2.43482 2,-1.24902 2,-1.24902 0,-3.25945 0,-3.25946 -10.37755,0 -10.37756,0 -1.28006,1.54239 -1.28007,1.54238 1.15762,1.15762 1.15762,1.15761 0,2.1 0,2.1 -1.2,1.2 -1.2,1.2 -2.1,0 -2.1,0 -1.2,-1.2 -1.2,-1.2 0,-2.1 0,-2.1 1.2,-1.2 1.2,-1.2 -1.2,-1.2 -1.2,-1.2 0,-2.1 0,-2.099996 1.2,-1.2 1.2,-1.2 2.17756,0 2.17755,0 1.24489,1.5 1.24489,1.5 5.87756,0 5.87755,0 0,-1.877555 0,-1.877556 -1.5,-1.244889 -1.5,-1.244889 0,-2.177556 0,-2.177555 1.2,-1.2 1.2,-1.2 2.1,0 2.1,0 1.2,1.2 1.2,1.2 0,2.177555 0,2.177556 -1.5,1.244889 -1.5,1.244889 0,1.877556 0,1.877555 4.5,0 4.5,0 0,5.440986 0,5.44098 1,0.61803 1,0.61804 0,1.95455 c 0,1.075 -0.5409,2.82068 -1.20201,3.879281 l -1.202,1.92472 1.27326,2.3791 1.27325,2.37911 -0.32125,3.9326 -0.32125,3.93261 -2.53742,0.29591 z m -0.46258,-3.79591 1.5,0 0,-1.5 0,-1.5 -1.5,0 -1.5,0 0,1.5 0,1.5 1.5,0 z m -1,-13.000011 1.5,0 0,-1.5 0,-1.5 -1.5,0 -1.5,0 0,1.5 0,1.5 1.5,0 z m -26,-4 1.5,0 0,-1.5 0,-1.5 -1.5,0 -1.5,0 0,1.5 0,1.5 1.5,0 z m 0,-9 1.5,0 0,-1.5 0,-1.499996 -1.5,0 -1.5,0 0,1.499996 0,1.5 1.5,0 z m 18,-9.999996 1.5,0 0,-1.5 0,-1.5 -1.5,0 -1.5,0 0,1.5 0,1.5 1.5,0 z m 19.46258,39.795917 -2.53743,0.29591 -0.71257,-0.71258 -0.71258,-0.71257 0,-3.84691 0,-3.8469 1.24055,-1.98643 1.24055,-1.98643 -1.24055,-1.98643 c -0.6823,-1.092541 -1.24055,-2.865991 -1.24055,-3.940991 l 0,-1.95455 1,-0.61804 1,-0.61803 0,-2.31854 0,-2.31854 -1.5,-1.24489 -1.5,-1.24488 0,-2.25512 0,-2.255107 1.52523,-1.265827 1.52523,-1.265827 -1.52523,-1.685358 -1.52523,-1.685358 0,-2.048815 0,-2.048815 1.5,-1.244889 c 0.825,-0.684689 1.5,-1.809689 1.5,-2.5 0,-0.690311 -0.675,-1.815311 -1.5,-2.5 l -1.5,-1.244889 0,-2.177556 0,-2.177555 1.2,-1.2 1.2,-1.2 2.1,0 2.1,0 1.2,1.2 1.2,1.2 0,2.177555 0,2.177556 -1.5,1.244889 c -0.825,0.684689 -1.5,1.809689 -1.5,2.5 0,0.690311 0.675,1.815311 1.5,2.5 l 1.5,1.244889 0,2.255111 0,2.255111 -1.52523,1.265827 -1.52523,1.265827 1.52523,1.685358 1.52523,1.685358 0,2.048815 0,2.04882 -1.5,1.24488 -1.5,1.24489 0,1.63701 0,1.63701 2,1.24902 2,1.24902 0,2.43482 0,2.43483 -2.18357,1.529441 -2.18358,1.52943 1.25483,2.34466 1.25482,2.34467 -0.32125,3.9326 -0.32125,3.93261 -2.53742,0.29591 z m -0.46258,-3.79591 1.5,0 0,-1.5 0,-1.5 -1.5,0 -1.5,0 0,1.5 0,1.5 1.5,0 z m 1,-13.000011 1.5,0 0,-1.5 0,-1.5 -1.5,0 -1.5,0 0,1.5 0,1.5 1.5,0 z m -1,-13 1.5,0 0,-1.5 0,-1.499996 -1.5,0 -1.5,0 0,1.499996 0,1.5 1.5,0 z m 0,-9.999996 1.5,0 0,-1.5 0,-1.5 -1.5,0 -1.5,0 0,1.5 0,1.5 1.5,0 z m 0,-12 1.5,0 0,-1.5 0,-1.5 -1.5,0 -1.5,0 0,1.5 0,1.5 1.5,0 z m 29.462577,51.795917 -2.53743,0.29591 -0.71257,-0.71258 -0.71258,-0.71257 0,-4.27432 0,-4.27432 1,-0.61803 1,-0.61803 0,-13.440991 0,-13.440986 -1.5,0 -1.5,0 0,-5.377555 0,-5.377556 -1.5,-1.244889 -1.5,-1.244889 0,-2.255111 0,-2.255111 1.5,-1.244889 1.5,-1.244889 0,-2.255111 0,-2.255111 -1.5,-1.244889 -1.5,-1.244889 0,-2.255111 0,-2.255111 1.5,-1.244889 1.5,-1.244889 0,-2.877556 0,-2.877555 6.5,0 6.5,0 0,-12.5 0,-12.5 19.5,0 19.5,0 0,24.77346 0,24.77346 8,7.95308 8,7.95308 0,7.073456 0,7.07346 -1.2,1.2 -1.2,1.2 -5.09705,0 -5.09705,0 -3.70295,3.79217 -3.70295,3.792171 0,2.08539 0,2.08539 1.5,1.24489 1.5,1.24489 0,2.17755 0,2.17756 -1.2,1.2 -1.2,1.2 -2.1,0 -2.1,0 -1.2,-1.2 -1.2,-1.2 0,-2.17756 0,-2.17755 1.5,-1.24489 1.5,-1.24489 0,-3.67461 0,-3.674611 3.79216,-3.70295 3.79217,-3.70295 5.00783,0 5.00784,0 1.2,-1.2 1.2,-1.2 0,-4.07346 0,-4.073456 -8,-7.95308 -8,-7.95308 0,-24.77346 0,-24.77346 -16.5,0 -16.5,0 0,12.5 0,12.5 -6.5,0 -6.5,0 0,1.377555 0,1.377556 1.5,1.244889 1.5,1.244889 0,2.255111 0,2.255111 -1.5,1.244889 -1.5,1.244889 0,2.255111 0,2.255111 1.5,1.244889 1.5,1.244889 0,2.255111 0,2.255111 -1.5,1.244889 -1.5,1.244889 0,3.877556 0,3.877555 1.5,0 1.5,0 0,14.799996 0,14.800011 1.06414,1.06414 1.06413,1.06413 -0.31413,4.38587 -0.31414,4.38586 -2.53742,0.29591 z m 41.53742,-2.79591 1.5,0 0,-1.5 0,-1.5 -1.5,0 -1.5,0 0,1.5 0,1.5 1.5,0 z m -42,-1 1.5,0 0,-1.5 0,-1.5 -1.5,0 -1.5,0 0,1.5 0,1.5 1.5,0 z m -3,-48.000007 1.5,0 0,-1.5 0,-1.5 -1.5,0 -1.5,0 0,1.5 0,1.5 1.5,0 z m 0,-14 1.5,0 0,-1.5 0,-1.5 -1.5,0 -1.5,0 0,1.5 0,1.5 1.5,0 z m 12.95885,65.792187 -2.04115,0.29219 -0.70885,-0.70885 -0.70885,-0.70885 0,-3.84691 0,-3.8469 1.23506,-1.97764 1.23505,-1.97764 -2.23505,-1.56549 -2.23506,-1.565501 0,-2.43483 0,-2.43482 2,-1.24902 2,-1.24902 0,-1.63701 0,-1.63701 -1.5,-1.24489 -1.5,-1.24488 0,-2.25512 0,-2.255107 1.52523,-1.265827 1.52523,-1.265827 -1.52523,-1.685358 -1.52523,-1.685358 0,-2.048815 0,-2.048815 1.5,-1.244889 c 0.825,-0.684689 1.5,-1.809689 1.5,-2.5 0,-0.690311 -0.675,-1.815311 -1.5,-2.5 l -1.5,-1.244889 0,-2.177556 0,-2.177555 1.2,-1.2 1.2,-1.2 2.1,0 2.1,0 1.2,1.2 1.2,1.2 0,2.177555 0,2.177556 -1.5,1.244889 c -0.825,0.684689 -1.5,1.809689 -1.5,2.5 0,0.690311 0.675,1.815311 1.5,2.5 l 1.5,1.244889 0,2.255111 0,2.255111 -1.52523,1.265827 -1.52523,1.265827 1.52523,1.685358 1.52523,1.685358 0,2.048815 0,2.04882 -1.5,1.24488 -1.5,1.24489 0,2.31854 0,2.31854 1,0.61803 1,0.61804 0,2.27431 c 0,1.25088 -0.3375,2.61704 -0.75,3.035921 l -0.75,0.76162 0,7.15506 0,7.15506 -2.04115,0.29218 z m -0.45885,-3.79218 1,0 0,-1.5 0,-1.5 -1,0 -1,0 0,1.5 0,1.5 1,0 z m -0.5,-13.000011 1.5,0 0,-1.5 0,-1.5 -1.5,0 -1.5,0 0,1.5 0,1.5 1.5,0 z m 1,-13 1.5,0 0,-1.5 0,-1.499996 -1.5,0 -1.5,0 0,1.499996 0,1.5 1.5,0 z m 0,-9.999996 1.5,0 0,-1.5 0,-1.5 -1.5,0 -1.5,0 0,1.5 0,1.5 1.5,0 z m 0,-12 1.5,0 0,-1.5 0,-1.5 -1.5,0 -1.5,0 0,1.5 0,1.5 1.5,0 z m 9.13437,52.000007 -3.63437,0 0,-5.5 0,-5.5 1.5,0 1.5,0 0,-1.94098 0,-1.94099 -1,-0.61804 -1,-0.618031 0,-2.38197 0,-2.38196 1,-0.61804 1,-0.61803 0,-5.44098 0,-5.440986 4.5,0 4.5,0 0,-1.877555 0,-1.877556 -1.5,-1.244889 -1.5,-1.244889 0,-2.177556 0,-2.177555 1.2,-1.2 1.2,-1.2 2.1,0 2.1,0 1.2,1.2 1.2,1.2 0,2.177555 0,2.177556 -1.5,1.244889 -1.5,1.244889 0,1.877556 0,1.877555 4.87756,0 4.87755,0 1.24489,-1.5 1.24489,-1.5 2.31854,0 2.31854,0 0.67188,1.087132 0.67189,1.087133 1.08713,-1.087133 1.08713,-1.087132 2.1,0 2.1,0 1.2,1.2 1.2,1.2 0,2.099996 0,2.1 -1.2,1.2 -1.2,1.2 -2.24098,0 -2.24099,0 -0.67188,-1.08713 -0.67189,-1.08713 -1.08713,1.08713 -1.08713,1.08713 -2.17756,0 -2.17755,0 -1.24489,-1.5 -1.24489,-1.5 -9.37755,0 -9.37756,0 0,3.25946 0,3.25945 2,1.24902 2,1.24902 0,2.48305 0,2.48306 -1.85572,1.158921 -1.85571,1.15891 0.49008,6.84956 0.49008,6.84956 -3.63436,0 z m -0.13437,-4 1.5,0 0,-1.5 0,-1.5 -1.5,0 -1.5,0 0,1.5 0,1.5 1.5,0 z m 2,-13.000011 1.5,0 0,-1.5 0,-1.5 -1.5,0 -1.5,0 0,1.5 0,1.5 1.5,0 z m 24,-13 1.5,0 0,-1.5 0,-1.499996 -1.5,0 -1.5,0 0,1.499996 0,1.5 1.5,0 z m 8,0 1.5,0 0,-1.5 0,-1.499996 -1.5,0 -1.5,0 0,1.499996 0,1.5 1.5,0 z m -24,-9.999996 1.5,0 0,-1.5 0,-1.5 -1.5,0 -1.5,0 0,1.5 0,1.5 1.5,0 z m -2.5,39.000007 -1,0 0,-5 0,-5 0.8,0 c 0.44,0 1.34,0.54 2,1.2 0.66,0.66 1.2,1.58656 1.2,2.05902 l 0,0.85901 -1,-0.61803 -1,-0.61803 0,3.55901 0,3.55902 -1,0 z m 52.82143,-8.03804 c -0.17679,-0.0209 -0.81219,-0.60013 -1.41201,-1.28713 l -1.09058,-1.2491 1.34058,-1.25229 1.34058,-1.25229 1.34988,1.26097 1.34988,1.26098 -1.27845,1.27845 c -0.70315,0.70315 -1.4231,1.26133 -1.59988,1.24041 z m -184.321426,-8.961971 -2.1,0 -1.2,-1.2 -1.2,-1.2 0,-2.3 0,-2.3 -1.825686,0 -1.8256862,0 -2.174313,-2.31445 -2.174314,-2.31445 0,-2.01123 0,-2.011238 2.314451,-2.174314 2.314451,-2.174314 2.0112342,0 2.011235,0 2.174314,2.314451 2.174314,2.314451 0,2.945004 0,2.945 2,1.24902 2,1.24902 0,2.29153 0,2.29152 -1.2,1.2 -1.2,1.2 -2.1,0 z m 0,-3 1.5,0 0,-1.5 0,-1.5 -1.5,0 -1.5,0 0,1.5 0,1.5 1.5,0 z m -6,-9 1.5,0 0,-1.5 0,-1.499996 -1.5,0 -1.5,0 0,1.499996 0,1.5 1.5,0 z m 208.807986,5 -2.0631,0 -1.20966,-1.45755 -1.20967,-1.45756 -2.9103,0.58206 -2.9103,0.58206 -1.50248,-1.24695 -1.50248,-1.24694 0,-2.25512 0,-2.255107 1.50248,-1.246948 1.50248,-1.246949 2.9103,0.58206 2.9103,0.58206 1.20967,-1.457556 1.20966,-1.457556 2.20324,0 2.20324,0 2.17432,2.314451 2.17431,2.314451 0,2.011234 0,2.01124 -2.31445,2.17431 -2.31445,2.17431 -2.06311,0 z m -8.80799,-5 1.5,0 0,-1.5 0,-1.499996 -1.5,0 -1.5,0 0,1.499996 0,1.5 1.5,0 z m 9,0 1.5,0 0,-1.5 0,-1.499996 -1.5,0 -1.5,0 0,1.499996 0,1.5 1.5,0 z M 22.658299,67.677823 l -2.020967,0 -2.174314,-2.314451 -2.174314,-2.314451 0,-2.011235 0,-2.011235 2.314451,-2.174314 2.314451,-2.174314 1.88083,0 1.88083,0 2.787487,2.670582 2.787487,2.670582 1.845973,-1.670582 1.84597,-1.670582 1.97126,0 1.97126,0 1.2,1.2 1.2,1.2 0,2.1 0,2.1 -1.2,1.2 -1.2,1.2 -1.97126,0 -1.97126,0 -1.84597,-1.670582 -1.845973,-1.670582 -2.787487,2.670582 -2.787487,2.670582 -2.020967,0 z m 0.130405,-5 1.5,0 0,-1.5 0,-1.5 -1.5,0 -1.5,0 0,1.5 0,1.5 1.5,0 z m 12.999999,0 1.5,0 0,-1.5 0,-1.5 -1.5,0 -1.5,0 0,1.5 0,1.5 1.5,0 z m 169.859857,5 -2.01123,0 -2.34863,-2.5 -2.34863,-2.5 -1.70324,0 -1.70324,0 -1.24489,1.5 -1.24489,1.5 -2.17755,0 -2.17756,0 -1.2,-1.2 -1.2,-1.2 0,-2.1 0,-2.1 1.2,-1.2 1.2,-1.2 2.17756,0 2.17755,0 1.24489,1.5 1.24489,1.5 1.70324,0 1.70324,0 2.34863,-2.5 2.34863,-2.5 2.15137,0 2.15137,0 2.17432,2.314451 2.17431,2.314451 0,2.011235 0,2.011235 -2.31445,2.174314 -2.31445,2.174314 -2.01124,0 z m -14.85986,-5 1.5,0 0,-1.5 0,-1.5 -1.5,0 -1.5,0 0,1.5 0,1.5 1.5,0 z m 15,0 1.5,0 0,-1.5 0,-1.5 -1.5,0 -1.5,0 0,1.5 0,1.5 1.5,0 z m -130.999997,3 -2.1,0 -1.2,-1.2 -1.2,-1.2 0,-2.177555 0,-2.177556 1.5,-1.244889 1.5,-1.244889 0,-1.755111 0,-1.755111 -1.5,-1.244889 -1.5,-1.244889 0,-2.255111 0,-2.255111 1.5,-1.244889 c 0.825,-0.684689 1.5,-1.809689 1.5,-2.5 0,-0.690311 -0.675,-1.815311 -1.5,-2.5 l -1.5,-1.244889 0,-2.255111 0,-2.255111 1.5,-1.244889 1.5,-1.244889 0,-1.755111 0,-1.755111 -1.5,-1.244889 -1.5,-1.244889 0,-2.177556 0,-2.177555 1.2,-1.2 1.2,-1.2 2.1,0 2.1,0 1.2,1.2 1.2,1.2 0,2.177555 0,2.177556 -1.5,1.244889 -1.5,1.244889 0,1.755111 0,1.755111 1.5,1.244889 1.5,1.244889 0,2.255111 0,2.255111 -1.5,1.244889 c -0.825,0.684689 -1.5,1.795045 -1.5,2.467457 0,0.672412 0.82293,1.967312 1.82874,2.877555 l 1.82874,1.654988 4.54882,0 4.54881,0 1.24489,-1.5 1.24489,-1.5 2.17756,0 2.17755,0 1.2,1.2 1.2,1.2 0,2.1 0,2.1 -1.2,1.2 -1.2,1.2 -2.17755,0 -2.17756,0 -1.24489,-1.5 -1.24489,-1.5 -4.72257,0 -4.72256,0 -1.65499,1.828741 -1.65499,1.82874 0,1.548815 0,1.548815 1.5,1.244889 1.5,1.244889 0,2.177556 0,2.177555 -1.2,1.2 -1.2,1.2 -2.1,0 z m 0,-3 1.5,0 0,-1.5 0,-1.5 -1.5,0 -1.5,0 0,1.5 0,1.5 1.5,0 z m 0,-13 1.5,0 0,-1.5 0,-1.5 -1.5,0 -1.5,0 0,1.5 0,1.5 1.5,0 z m 19,0 1.5,0 0,-1.5 0,-1.5 -1.5,0 -1.5,0 0,1.5 0,1.5 1.5,0 z m -19,-12 1.5,0 0,-1.5 0,-1.5 -1.5,0 -1.5,0 0,1.5 0,1.5 1.5,0 z m 0,-13 1.5,0 0,-1.5 0,-1.5 -1.5,0 -1.5,0 0,1.5 0,1.5 1.5,0 z m 76.999997,41 -2.1,0 -1.2,-1.2 -1.2,-1.2 0,-2.177555 0,-2.177556 1.5,-1.244889 1.5,-1.244889 0,-1.722568 0,-1.722568 -1.82874,-1.654987 -1.82874,-1.654988 -4.54882,0 -4.54881,0 -1.24489,1.5 -1.24489,1.5 -2.17755,0 -2.17756,0 -1.2,-1.2 -1.2,-1.2 0,-2.1 0,-2.1 1.2,-1.2 1.2,-1.2 2.17756,0 2.17755,0 1.24489,1.5 1.24489,1.5 4.72257,0 4.72256,0 1.65499,-1.828741 c 0.91025,-1.005807 1.65499,-2.300707 1.65499,-2.877555 0,-0.576848 -0.675,-1.609015 -1.5,-2.293704 l -1.5,-1.244889 0,-2.255111 0,-2.255111 1.5,-1.244889 1.5,-1.244889 0,-1.755111 0,-1.755111 -1.5,-1.244889 -1.5,-1.244889 0,-2.177556 0,-2.177555 1.2,-1.2 1.2,-1.2 2.1,0 2.1,0 1.2,1.2 1.2,1.2 0,2.177555 0,2.177556 -1.5,1.244889 -1.5,1.244889 0,1.755111 0,1.755111 1.5,1.244889 1.5,1.244889 0,2.255111 0,2.255111 -1.5,1.244889 c -0.825,0.684689 -1.5,1.809689 -1.5,2.5 0,0.690311 0.675,1.815311 1.5,2.5 l 1.5,1.244889 0,2.255111 0,2.255111 -1.5,1.244889 -1.5,1.244889 0,1.755111 0,1.755111 1.5,1.244889 1.5,1.244889 0,2.177556 0,2.177555 -1.2,1.2 -1.2,1.2 -2.1,0 z m 0,-3 1.5,0 0,-1.5 0,-1.5 -1.5,0 -1.5,0 0,1.5 0,1.5 1.5,0 z m -19,-13 1.5,0 0,-1.5 0,-1.5 -1.5,0 -1.5,0 0,1.5 0,1.5 1.5,0 z m 19,0 1.5,0 0,-1.5 0,-1.5 -1.5,0 -1.5,0 0,1.5 0,1.5 1.5,0 z m 0,-12 1.5,0 0,-1.5 0,-1.5 -1.5,0 -1.5,0 0,1.5 0,1.5 1.5,0 z m 0,-13 1.5,0 0,-1.5 0,-1.5 -1.5,0 -1.5,0 0,1.5 0,1.5 1.5,0 z m -138.999996,30 -2.151372,0 -2.1743142,-2.314451 -2.174313,-2.314451 0,-2.011235 0,-2.011235 2.314451,-2.174314 2.3144512,-2.174314 2.011234,0 2.011235,0 2.348628,2.5 2.348628,2.5 5.703241,0 5.70324,0 1.24489,-1.5 1.24489,-1.5 2.17756,0 2.17755,0 1.2,1.2 1.2,1.2 0,2.1 0,2.1 -1.2,1.2 -1.2,1.2 -2.17755,0 -2.17756,0 -1.24489,-1.5 -1.24489,-1.5 -5.70324,0 -5.703241,0 -2.348628,2.5 -2.348628,2.5 -2.151372,0 z m 0,-5 1.5,0 0,-1.5 0,-1.5 -1.5,0 -1.5,0 0,1.5 0,1.5 1.5,0 z m 22.999999,0 1.5,0 0,-1.5 0,-1.5 -1.5,0 -1.5,0 0,1.5 0,1.5 1.5,0 z m 179.859857,5 -2.01123,0 -2.34863,-2.5 -2.34863,-2.5 -6.70324,0 -6.70324,0 -1.24489,1.5 -1.24489,1.5 -2.17755,0 -2.17756,0 -1.2,-1.2 -1.2,-1.2 0,-2.1 0,-2.1 1.2,-1.2 1.2,-1.2 2.17756,0 2.17755,0 1.24489,1.5 1.24489,1.5 6.70324,0 6.70324,0 2.34863,-2.5 2.34863,-2.5 2.15137,0 2.15137,0 2.17432,2.314451 2.17431,2.314451 0,2.011235 0,2.011235 -2.31445,2.174314 -2.31445,2.174314 -2.01124,0 z m -24.85986,-5 1.5,0 0,-1.5 0,-1.5 -1.5,0 -1.5,0 0,1.5 0,1.5 1.5,0 z m 25,0 1.5,0 0,-1.5 0,-1.5 -1.5,0 -1.5,0 0,1.5 0,1.5 1.5,0 z m -193.130401,-7 -2.020967,0 -2.174314,-2.314451 -2.174314,-2.314451 0,-2.011235 0,-2.011235 2.314451,-2.174314 2.314451,-2.174314 1.88083,0 1.88083,0 2.787487,2.670582 2.787487,2.670582 1.845973,-1.670582 1.84597,-1.670582 1.97126,0 1.97126,0 1.2,1.2 1.2,1.2 0,2.1 0,2.1 -1.2,1.2 -1.2,1.2 -1.97126,0 -1.97126,0 -1.84597,-1.670582 -1.845973,-1.670582 -2.787487,2.670582 -2.787487,2.670582 -2.020967,0 z m 0.130405,-5 1.5,0 0,-1.5 0,-1.5 -1.5,0 -1.5,0 0,1.5 0,1.5 1.5,0 z m 12.999999,0 1.5,0 0,-1.5 0,-1.5 -1.5,0 -1.5,0 0,1.5 0,1.5 1.5,0 z m 169.859857,5 -2.01123,0 -2.34863,-2.5 -2.34863,-2.5 -1.70324,0 -1.70324,0 -1.24489,1.5 -1.24489,1.5 -2.17755,0 -2.17756,0 -1.2,-1.2 -1.2,-1.2 0,-2.1 0,-2.1 1.2,-1.2 1.2,-1.2 2.17756,0 2.17755,0 1.24489,1.5 1.24489,1.5 1.70324,0 1.70324,0 2.34863,-2.5 2.34863,-2.5 2.15137,0 2.15137,0 2.17432,2.314451 2.17431,2.314451 0,2.011235 0,2.011235 -2.31445,2.174314 -2.31445,2.174314 -2.01124,0 z m -14.85986,-5 1.5,0 0,-1.5 0,-1.5 -1.5,0 -1.5,0 0,1.5 0,1.5 1.5,0 z m 15,0 1.5,0 0,-1.5 0,-1.5 -1.5,0 -1.5,0 0,1.5 0,1.5 1.5,0 z m -192.914576,-7 -2.236792,0 -2.1743142,-2.314451 -2.174313,-2.314451 0,-2.030562 0,-2.030561 2,-1.809975 c 1.099999,-0.995486 1.9999992,-2.306985 1.9999992,-2.914441 l 0,-1.104465 -1.9999992,-1.249021 -2,-1.249021 0,-2.291526 0,-2.2915253 1.2,-1.2 1.199999,-1.2 2.1000002,0 2.1,0 1.2,1.2 1.2,1.2 0,1.8135683 c 0,0.997463 -0.529188,2.660933 -1.175973,3.6966 l -1.175973,1.883032 2.925973,2.571798 2.925973,2.571799 6.127555,0.0316 6.127554,0.0316 1.24489,-1.5 1.24489,-1.5 2.17756,0 2.17755,0 1.2,1.2 1.2,1.2 0,2.1 0,2.1 -1.2,1.2 -1.2,1.2 -2.17755,0 -2.17756,0 -1.24489,-1.5 -1.24489,-1.5 -5.442114,0 -5.442115,0 -2.524334,3 -2.524333,3 -2.236793,0 z m -0.08542,-5 1.5,0 0,-1.5 0,-1.5 -1.5,0 -1.5,0 0,1.5 0,1.5 1.5,0 z m 22.999999,-1 1.5,0 0,-1.5 0,-1.5 -1.5,0 -1.5,0 0,1.5 0,1.5 1.5,0 z m -24.999999,-12 1.5,0 0,-1.5 0,-1.4999993 -1.5,0 -1.5000002,0 0,1.4999993 0,1.5 1.5000002,0 z m 204.859856,17 -2.01123,0 -2.34863,-2.5 -2.34863,-2.5 -6.70324,0 -6.70324,0 -1.24489,1.5 -1.24489,1.5 -2.17755,0 -2.17756,0 -1.2,-1.2 -1.2,-1.2 0,-2.1 0,-2.1 1.2,-1.2 1.2,-1.2 2.17756,0 2.17755,0 1.24489,1.5 1.24489,1.5 6.70324,0 6.70324,0 2.34863,-2.5 2.34863,-2.5 2.15137,0 2.15137,0 2.17432,2.314451 2.17431,2.314451 0,2.011235 0,2.011235 -2.31445,2.174314 -2.31445,2.174314 -2.01124,0 z m -24.85986,-5 1.5,0 0,-1.5 0,-1.5 -1.5,0 -1.5,0 0,1.5 0,1.5 1.5,0 z m 25,0 1.5,0 0,-1.5 0,-1.5 -1.5,0 -1.5,0 0,1.5 0,1.5 1.5,0 z"
     id="path2999"
     inkscape:connector-curvature="0" />
</svg>
